{"title":"BBC Horizon: The Nine Months That Made You. 2011 720p [aularon]","uid":6622894,"size":1144134474,"categoryP":"video","categoryS":"hd___tv_shows","magnet":"?xt=urn:btih:65977369d2d8f8f3745e0bec92334afca2612993&amp;dn=BBC+Horizon%3A+The+Nine+Months+That+Made+You.+2011+720p+%5Baularon%5D&amp;tr=udp%3A%2F%2Ftracker.openbittorrent.com%3A80&amp;tr=udp%3A%2F%2Fopen.demonii.com%3A1337&amp;tr=udp%3A%2F%2Ftracker.coppersurfer.tk%3A6969&amp;tr=udp%3A%2F%2Fexodus.desync.com%3A6969","seeders":0,"leechers":1,"uploader":"aularon","files":-1,"time":1314063160,"description":"BBC Horizon 2011/2012 S48E03 The Nine Months That Made You. 720p x264 aac mp4 subtitles [aularon]\n\n- - -\nSynopsis\n- - -\nHorizon explores the secrets of what makes a long, healthy and happy life. It turns out that a time you can't remember - the nine months you spend in the womb - could have more lasting effects on you today than your lifestyle or genes. It is one of the most powerful and provocative new ideas in human science, and it was pioneered by a British scientist, Professor David Barker. His theory has inspired a field of study that is revealing how our time in the womb could affect your health, personality, and even the lives of your children.\n\n\n- - -\nURL\n- - - &lt;a href=&quot;\nhttp://www.bbc.co.uk/programmes/b013ywz4&quot; rel=&quot;nofollow&quot; target=&quot;_NEW&quot;&gt;\nhttp://www.bbc.co.uk/programmes/b013ywz4&lt;/a&gt;\n\n- - -\nTechnical Details\n- - -\nGeneral\nComplete name                    : BBC.Horizon.2011.2012.S48E03.The.Nine.Months.That.Made.You/Horizon_-_2011-2012_3._The_Nine_Months_That_Made_You_b013ywz4_default.mp4\nFormat                           : MPEG-4\nFormat profile                   : Base Media\nCodec ID                         : isom\nFile size                        : 1.07 GiB\nDuration                         : 59mn 17s\nOverall bit rate                 : 2 573 Kbps\nMovie name                       : Horizon: 2011-2012: The Nine Months That Made You\nAlbum                            : Horizon\nTrack name/Position              : 3\nTrack name/Total                 : 0\nPerformer                        : Horizon\nGenre                            : Factual,Science &amp; Nature\nRecorded date                    : 2011-08-22T21:00:00+01:00\nWriting application              : Lavf53.6.0\nCover                            : Yes\nComment                          : Recorded using get_iplayer, by Aularon.\nrtng                             : 2\nstik                             : 1\ndesc                             : Series exploring topical scientific issues. The programme examines how the nine months you spend in the womb could have more lasting effects than lifestyle or genes.\ntvnn                             : BBC HD\ntvsh                             : Horizon\ntven                             : b013ywz4\ncatg                             : Factual,Science &amp; Nature\ntves                             : 3\n\nVideo\nID                               : 1\nFormat                           : AVC\nFormat/Info                      : Advanced Video Codec\nFormat profile                   : &lt;a class=&quot;__cf_email__&quot; href=&quot;/cdn-cgi/l/email-protection&quot; data-cfemail=&quot;95ddfcf2fdd5d9a1bba4&quot;&gt;[email&amp;#160;protected]&lt;/a&gt;&lt;script cf-hash='f9e31' type=&quot;text/javascript&quot;&gt;\n/* &lt;![CDATA[ */!function(){try{var t=&quot;currentScript&quot;in document?document.currentScript:function(){for(var t=document.getElementsByTagName(&quot;script&quot;),e=t.length;e--;)if(t[e].getAttribute(&quot;cf-hash&quot;))return t[e]}();if(t&amp;&amp;t.previousSibling){var e,r,n,i,c=t.previousSibling,a=c.getAttribute(&quot;data-cfemail&quot;);if(a){for(e=&quot;&quot;,r=parseInt(a.substr(0,2),16),n=2;a.length-n;n+=2)i=parseInt(a.substr(n,2),16)^r,e+=String.fromCharCode(i);e=document.createTextNode(e),c.parentNode.replaceChild(e,c)}}}catch(u){}}();/* ]]&gt; */&lt;/script&gt;\nFormat settings, CABAC           : Yes\nFormat settings, ReFrames        : 6 frames\nCodec ID                         : avc1\nCodec ID/Info                    : Advanced Video Coding\nDuration                         : 59mn 17s\nBit rate mode                    : Variable\nBit rate                         : 2 472 Kbps\nMaximum bit rate                 : 3 500 Kbps\nWidth                            : 1 280 pixels\nHeight                           : 720 pixels\nDisplay aspect ratio             : 16:9\nFrame rate mode                  : Constant\nFrame rate                       : 25.000 fps\nStandard                         : PAL\nColor space                      : YUV\nChroma subsampling               : 4:2:0\nBit depth                        : 8 bits\nScan type                        : Progressive\nBits/(Pixel*Frame)               : 0.107\nStream size                      : 1.02 GiB (96%)\n\nAudio\nID                               : 2\nFormat                           : AAC\nFormat/Info                      : Advanced Audio Codec\nFormat profile                   : HE-AAC / LC\nCodec ID                         : 40\nDuration                         : 59mn 17s\nBit rate mode                    : Constant\nBit rate                         : 96.0 Kbps\nChannel(s)                       : 2 channels\nChannel positions                : Front: L R\nSampling rate                    : 48.0 KHz / 24.0 KHz\nCompression mode                 : Lossy\nStream size                      : 40.2 MiB (4%)\n","torrent":{"xt":"urn:btih:65977369d2d8f8f3745e0bec92334afca2612993","amp;dn":"BBC+Horizon%3A+The+Nine+Months+That+Made+You.+2011+720p+%5Baularon%5D","amp;tr":["udp%3A%2F%2Ftracker.openbittorrent.com%3A80","udp%3A%2F%2Fopen.demonii.com%3A1337","udp%3A%2F%2Ftracker.coppersurfer.tk%3A6969","udp%3A%2F%2Fexodus.desync.com%3A6969"],"infoHash":"65977369d2d8f8f3745e0bec92334afca2612993","infoHashBuffer":{"type":"Buffer","data":[101,151,115,105,210,216,248,243,116,94,11,236,146,51,74,252,162,97,41,147]},"announce":[],"urlList":[]}}